<svg version="1.1" viewBox="0.0 0.0 960.0 400.0" fill="none" stroke="none" stroke-linecap="square" stroke-miterlimit="10" xmlns:xlink="http://www.w3.org/1999/xlink" xmlns="http://www.w3.org/2000/svg"><clipPath id="g119cfd8b205_0_0.0"><path d="m0 0l960.0 0l0 540.0l-960.0 0l0 -540.0z" clip-rule="nonzero"/></clipPath><g clip-path="url(#g119cfd8b205_0_0.0)"><path fill="#ffffff" d="m0 0l960.0 0l0 540.0l-960.0 0z" fill-rule="evenodd"/><path fill="#b7b7b7" d="m301.17978 251.51706l0 0c0 -79.26808 64.185455 -143.52756 143.36221 -143.52756l0 0c38.022034 0 74.486755 15.121613 101.372375 42.038254c26.88562 26.916626 41.989807 63.42343 41.989807 101.4893l0 0c0 79.2681 -64.185425 143.52756 -143.36218 143.52756l0 0c-79.17676 0 -143.36221 -64.25946 -143.36221 -143.52756z" fill-rule="evenodd"/><path stroke="#595959" stroke-width="1.0" stroke-linejoin="round" stroke-linecap="butt" d="m301.17978 251.51706l0 0c0 -79.26808 64.185455 -143.52756 143.36221 -143.52756l0 0c38.022034 0 74.486755 15.121613 101.372375 42.038254c26.88562 26.916626 41.989807 63.42343 41.989807 101.4893l0 0c0 79.2681 -64.185425 143.52756 -143.36218 143.52756l0 0c-79.17676 0 -143.36221 -64.25946 -143.36221 -143.52756z" fill-rule="evenodd"/><path fill="#eeeeee" d="m31.490814 251.51706l0 0c0 -59.64676 48.35325 -108.0 108.0 -108.0l0 0c28.643387 0 56.1136 11.37854 76.36754 31.632462c20.253922 20.253937 31.632462 47.72415 31.632462 76.36754l0 0c0 59.64676 -48.35324 108.0 -108.0 108.0l0 0c-59.64675 0 -108.0 -48.35324 -108.0 -108.0z" fill-rule="evenodd"/><path stroke="#595959" stroke-width="1.0" stroke-linejoin="round" stroke-linecap="butt" d="m31.490814 251.51706l0 0c0 -59.64676 48.35325 -108.0 108.0 -108.0l0 0c28.643387 0 56.1136 11.37854 76.36754 31.632462c20.253922 20.253937 31.632462 47.72415 31.632462 76.36754l0 0c0 59.64676 -48.35324 108.0 -108.0 108.0l0 0c-59.64675 0 -108.0 -48.35324 -108.0 -108.0z" fill-rule="evenodd"/><path fill="#eeeeee" d="m336.542 251.51706l0 0c0 -59.64676 48.35324 -108.0 108.0 -108.0l0 0c28.643372 0 56.113617 11.37854 76.36755 31.632462c20.253906 20.253937 31.632446 47.72415 31.632446 76.36754l0 0c0 59.64676 -48.35324 108.0 -108.0 108.0l0 0c-59.64676 0 -108.0 -48.35324 -108.0 -108.0z" fill-rule="evenodd"/><path stroke="#595959" stroke-width="1.0" stroke-linejoin="round" stroke-linecap="butt" d="m336.542 251.51706l0 0c0 -59.64676 48.35324 -108.0 108.0 -108.0l0 0c28.643372 0 56.113617 11.37854 76.36755 31.632462c20.253906 20.253937 31.632446 47.72415 31.632446 76.36754l0 0c0 59.64676 -48.35324 108.0 -108.0 108.0l0 0c-59.64676 0 -108.0 -48.35324 -108.0 -108.0z" fill-rule="evenodd"/><path fill="#000000" fill-opacity="0.0" d="m368.17447 327.88458l-24.992126 25.13388" fill-rule="evenodd"/><path stroke="#000000" stroke-width="2.0" stroke-linejoin="round" stroke-linecap="butt" d="m368.17447 327.88458l-16.530884 16.624634" fill-rule="evenodd"/><path fill="#000000" stroke="#000000" stroke-width="2.0" stroke-linecap="butt" d="m349.3011 342.17993l-4.0571594 8.765259l8.742157 -4.1066895z" fill-rule="evenodd"/><path fill="#000000" fill-opacity="0.0" d="m520.90955 327.88458l24.992126 25.13388" fill-rule="evenodd"/><path stroke="#000000" stroke-width="2.0" stroke-linejoin="round" stroke-linecap="butt" d="m520.90955 327.88458l16.530884 16.624634" fill-rule="evenodd"/><path fill="#000000" stroke="#000000" stroke-width="2.0" stroke-linecap="butt" d="m535.0979 346.8385l8.7421875 4.1066895l-4.05719 -8.765259z" fill-rule="evenodd"/><path fill="#000000" fill-opacity="0.0" d="m368.17447 175.14952l-24.992126 -25.13385" fill-rule="evenodd"/><path stroke="#000000" stroke-width="2.0" stroke-linejoin="round" stroke-linecap="butt" d="m368.17447 175.14952l-16.530884 -16.624619" fill-rule="evenodd"/><path fill="#000000" stroke="#000000" stroke-width="2.0" stroke-linecap="butt" d="m353.98608 156.19562l-8.742157 -4.106674l4.0571594 8.765244z" fill-rule="evenodd"/><path fill="#000000" fill-opacity="0.0" d="m520.90955 175.14952l24.992126 -25.13385" fill-rule="evenodd"/><path stroke="#000000" stroke-width="2.0" stroke-linejoin="round" stroke-linecap="butt" d="m520.90955 175.14952l16.530884 -16.624619" fill-rule="evenodd"/><path fill="#000000" stroke="#000000" stroke-width="2.0" stroke-linecap="butt" d="m539.7829 160.85419l4.05719 -8.765244l-8.7421875 4.106674z" fill-rule="evenodd"/><path fill="#b7b7b7" d="m641.5932 251.51706l0 0c0 -59.64676 48.35321 -108.0 108.0 -108.0l0 0c28.643372 0 56.113586 11.37854 76.36749 31.632462c20.253967 20.253937 31.632507 47.72415 31.632507 76.36754l0 0c0 59.64676 -48.35327 108.0 -108.0 108.0l0 0c-59.64679 0 -108.0 -48.35324 -108.0 -108.0z" fill-rule="evenodd"/><path stroke="#595959" stroke-width="1.0" stroke-linejoin="round" stroke-linecap="butt" d="m641.5932 251.51706l0 0c0 -59.64676 48.35321 -108.0 108.0 -108.0l0 0c28.643372 0 56.113586 11.37854 76.36749 31.632462c20.253967 20.253937 31.632507 47.72415 31.632507 76.36754l0 0c0 59.64676 -48.35327 108.0 -108.0 108.0l0 0c-59.64679 0 -108.0 -48.35324 -108.0 -108.0z" fill-rule="evenodd"/><path fill="#ffffff" d="m677.5932 251.51706l0 0c0 -39.764496 32.235474 -72.0 72.0 -72.0l0 0c19.095581 0 37.409058 7.5856934 50.911682 21.088318c13.5026245 13.502609 21.088318 31.816101 21.088318 50.911682l0 0c0 39.764496 -32.235535 72.0 -72.0 72.0l0 0c-39.764526 0 -72.0 -32.235504 -72.0 -72.0z" fill-rule="evenodd"/><path stroke="#595959" stroke-width="1.0" stroke-linejoin="round" stroke-linecap="butt" d="m677.5932 251.51706l0 0c0 -39.764496 32.235474 -72.0 72.0 -72.0l0 0c19.095581 0 37.409058 7.5856934 50.911682 21.088318c13.5026245 13.502609 21.088318 31.816101 21.088318 50.911682l0 0c0 39.764496 -32.235535 72.0 -72.0 72.0l0 0c-39.764526 0 -72.0 -32.235504 -72.0 -72.0z" fill-rule="evenodd"/><path fill="#000000" fill-opacity="0.0" d="m644.9101 137.05429l25.984253 26.64566" fill-rule="evenodd"/><path stroke="#000000" stroke-width="2.0" stroke-linejoin="round" stroke-linecap="butt" d="m644.9101 137.05429l17.606262 18.054428" fill-rule="evenodd"/><path fill="#000000" stroke="#000000" stroke-width="2.0" stroke-linecap="butt" d="m660.1513 157.41508l8.701782 4.19162l-3.9716187 -8.804352z" fill-rule="evenodd"/><path fill="#000000" fill-opacity="0.0" d="m644.92065 353.01706l25.93695 -26.64566" fill-rule="evenodd"/><path stroke="#000000" stroke-width="2.0" stroke-linejoin="round" stroke-linecap="butt" d="m644.92065 353.01706l17.566833 -18.046814" fill-rule="evenodd"/><path fill="#000000" stroke="#000000" stroke-width="2.0" stroke-linecap="butt" d="m664.8547 337.27448l3.963562 -8.807983l-8.697937 4.1995544z" fill-rule="evenodd"/><path fill="#000000" fill-opacity="0.0" d="m854.2308 137.01706l-25.937012 26.645676" fill-rule="evenodd"/><path stroke="#000000" stroke-width="2.0" stroke-linejoin="round" stroke-linecap="butt" d="m854.23083 137.01706l-17.566895 18.046814" fill-rule="evenodd"/><path fill="#000000" stroke="#000000" stroke-width="2.0" stroke-linecap="butt" d="m834.2968 152.75966l-3.963623 8.807953l8.697937 -4.199524z" fill-rule="evenodd"/><path fill="#000000" fill-opacity="0.0" d="m854.27625 353.00702l-25.937012 -26.59842" fill-rule="evenodd"/><path stroke="#000000" stroke-width="2.0" stroke-linejoin="round" stroke-linecap="butt" d="m854.27625 353.00702l-17.559204 -18.006989" fill-rule="evenodd"/><path fill="#000000" stroke="#000000" stroke-width="2.0" stroke-linecap="butt" d="m839.08215 332.6937l-8.70166 -4.191803l3.9714355 8.804443z" fill-rule="evenodd"/><path fill="#eeeeee" d="m85.490814 344.021l54.0 -92.50392l54.0 92.50392z" fill-rule="evenodd"/><path stroke="#595959" stroke-width="1.0" stroke-linejoin="round" stroke-linecap="butt" d="m85.490814 344.021l54.0 -92.50392l54.0 92.50392z" fill-rule="evenodd"/><path fill="#000000" fill-opacity="0.0" d="m374.43237 373.9265l72.0 -122.409454l72.0 122.409454z" fill-rule="evenodd"/><path stroke="#595959" stroke-width="1.0" stroke-linejoin="round" stroke-linecap="butt" d="m374.43237 373.9265l72.0 -122.409454l72.0 122.409454z" fill-rule="evenodd"/><path fill="#000000" fill-opacity="0.0" d="m697.8202 345.63974l51.77954 -89.38583" fill-rule="evenodd"/><path stroke="#595959" stroke-width="1.0" stroke-linejoin="round" stroke-linecap="butt" d="m697.8202 345.63974l51.77954 -89.38583" fill-rule="evenodd"/><path fill="#000000" fill-opacity="0.0" d="m801.3792 347.1988l-51.77948 -89.38583" fill-rule="evenodd"/><path stroke="#595959" stroke-width="1.0" stroke-linejoin="round" stroke-linecap="butt" d="m801.3792 347.1988l-51.77948 -89.38583" fill-rule="evenodd"/><path fill="#000000" fill-opacity="0.0" d="m13.608924 44.965878l251.7638 0l0 63.023624l-251.7638 0z" fill-rule="evenodd"/><path fill="#000000" d="m65.47711 77.20026l4.671875 1.46875q-1.078125 3.90625 -3.578125 5.8125q-2.484375 1.890625 -6.328125 1.890625q-4.75 0 -7.8125 -3.25q-3.0625 -3.25 -3.0625 -8.875q0 -5.953125 3.078125 -9.25q3.078125 -3.2968788 8.078125 -3.2968788q4.390625 0 7.125 2.5937538q1.625 1.53125 2.4375 4.390625l-4.765625 1.140625q-0.421875 -1.859375 -1.765625 -2.921875q-1.34375 -1.078125 -3.265625 -1.078125q-2.65625 0 -4.3125 1.90625q-1.640625 1.890625 -1.640625 6.15625q0 4.53125 1.625 6.453125q1.625 1.921875 4.234375 1.921875q1.921875 0 3.296875 -1.21875q1.390625 -1.234375 1.984375 -3.84375zm13.146637 8.765625l-4.5625 0l0 -17.28125l4.234375 0l0 2.453125q1.09375 -1.734375 1.96875 -2.28125q0.875 -0.5625 1.96875 -0.5625q1.5625 0 3.015625 0.859375l-1.40625 3.984375q-1.15625 -0.75 -2.15625 -0.75q-0.953125 0 -1.625 0.53125q-0.671875 0.53125 -1.0625 1.921875q-0.375 1.375 -0.375 5.78125l0 5.34375zm18.610611 -5.5l4.546875 0.765625q-0.875 2.5 -2.78125 3.8125q-1.890625 1.3125 -4.734375 1.3125q-4.5 0 -6.671875 -2.953125q-1.703125 -2.359375 -1.703125 -5.953125q0 -4.296875 2.234375 -6.71875q2.25 -2.4375 5.6875 -2.4375q3.859375 0 6.078125 2.546875q2.234375 2.546875 2.140625 7.796875l-11.453125 0q0.046875 2.046875 1.09375 3.171875q1.0625 1.125 2.640625 1.125q1.078125 0 1.8125 -0.578125q0.734375 -0.59375 1.109375 -1.890625zm0.25 -4.625q-0.046875 -1.984375 -1.03125 -3.015625q-0.96875 -1.03125 -2.359375 -1.03125q-1.5 0 -2.484375 1.09375q-0.96875 1.078125 -0.953125 2.953125l6.828125 0zm11.691772 -1.890625l-4.15625 -0.75q0.703125 -2.5 2.40625 -3.703125q1.71875 -1.203125 5.078125 -1.203125q3.0625 0 4.5625 0.734375q1.5 0.71875 2.109375 1.828125q0.609375 1.109375 0.609375 4.09375l-0.046875 5.34375q0 2.265625 0.21875 3.359375q0.21875 1.078125 0.8125 2.3125l-4.515625 0q-0.1875 -0.453125 -0.4375 -1.34375q-0.125 -0.40625 -0.171875 -0.546875q-1.171875 1.140625 -2.5 1.71875q-1.328125 0.5625 -2.84375 0.5625q-2.671875 0 -4.21875 -1.4375q-1.53125 -1.453125 -1.53125 -3.671875q0 -1.46875 0.703125 -2.609375q0.703125 -1.15625 1.953125 -1.765625q1.265625 -0.609375 3.640625 -1.0625q3.203125 -0.59375 4.4375 -1.125l0 -0.453125q0 -1.3125 -0.65625 -1.875q-0.640625 -0.5625 -2.453125 -0.5625q-1.21875 0 -1.90625 0.484375q-0.671875 0.46875 -1.09375 1.671875zm6.109375 3.71875q-0.875 0.296875 -2.78125 0.703125q-1.90625 0.40625 -2.484375 0.796875q-0.890625 0.625 -0.890625 1.609375q0 0.953125 0.703125 1.65625q0.71875 0.703125 1.828125 0.703125q1.234375 0 2.359375 -0.8125q0.828125 -0.625 1.09375 -1.515625q0.171875 -0.59375 0.171875 -2.234375l0 -0.90625zm16.926147 -8.984375l0 3.640625l-3.125 0l0 6.96875q0 2.109375 0.09375 2.46875q0.09375 0.34375 0.40625 0.578125q0.3125 0.21875 0.78125 0.21875q0.625 0 1.828125 -0.4375l0.390625 3.546875q-1.59375 0.6875 -3.609375 0.6875q-1.234375 0 -2.234375 -0.40625q-0.984375 -0.421875 -1.453125 -1.078125q-0.46875 -0.65625 -0.640625 -1.78125q-0.140625 -0.796875 -0.140625 -3.234375l0 -7.53125l-2.109375 0l0 -3.640625l2.109375 0l0 -3.4375l4.578125 -2.6718788l0 6.109379l3.125 0zm13.192276 11.78125l4.546875 0.765625q-0.875 2.5 -2.78125 3.8125q-1.890625 1.3125 -4.734375 1.3125q-4.5 0 -6.671875 -2.953125q-1.703125 -2.359375 -1.703125 -5.953125q0 -4.296875 2.234375 -6.71875q2.25 -2.4375 5.6875 -2.4375q3.859375 0 6.078125 2.546875q2.234375 2.546875 2.140625 7.796875l-11.453125 0q0.046875 2.046875 1.09375 3.171875q1.0625 1.125 2.640625 1.125q1.078125 0 1.8125 -0.578125q0.734375 -0.59375 1.109375 -1.890625zm0.25 -4.625q-0.046875 -1.984375 -1.03125 -3.015625q-0.96875 -1.03125 -2.359375 -1.03125q-1.5 0 -2.484375 1.09375q-0.96875 1.078125 -0.953125 2.953125l6.828125 0zm17.545135 -13.734379l8.8125 0q2.96875 0 4.53125 0.453125q2.109375 0.625 3.59375 2.2031288q1.5 1.578125 2.28125 3.875q0.78125 2.28125 0.78125 5.625q0 2.953125 -0.734375 5.078125q-0.890625 2.609375 -2.546875 4.21875q-1.25 1.21875 -3.390625 1.90625q-1.59375 0.5 -4.265625 0.5l-9.0625 0l0 -23.859379zm4.8125 4.031254l0 15.8125l3.609375 0q2.015625 0 2.90625 -0.234375q1.171875 -0.296875 1.9375 -0.984375q0.78125 -0.703125 1.265625 -2.296875q0.484375 -1.609375 0.484375 -4.375q0 -2.765625 -0.484375 -4.25q-0.484375 -1.484375 -1.375 -2.3125q-0.875 -0.828125 -2.21875 -1.125q-1.015625 -0.234375 -3.953125 -0.234375l-2.171875 0zm19.240387 0.203125l0 -4.234379l4.578125 0l0 4.234379l-4.578125 0zm0 19.625l0 -17.28125l4.578125 0l0 17.28125l-4.578125 0zm7.6502686 -4.9375l4.59375 -0.6875q0.28125 1.328125 1.171875 2.03125q0.90625 0.6875 2.515625 0.6875q1.78125 0 2.671875 -0.65625q0.59375 -0.453125 0.59375 -1.21875q0 -0.53125 -0.3125 -0.859375q-0.34375 -0.328125 -1.53125 -0.609375q-5.53125 -1.21875 -7.015625 -2.234375q-2.046875 -1.390625 -2.046875 -3.890625q0 -2.234375 1.765625 -3.765625q1.78125 -1.53125 5.5 -1.53125q3.546875 0 5.265625 1.15625q1.734375 1.15625 2.390625 3.421875l-4.3125 0.796875q-0.28125 -1.015625 -1.0625 -1.546875q-0.765625 -0.546875 -2.203125 -0.546875q-1.796875 0 -2.578125 0.515625q-0.53125 0.359375 -0.53125 0.921875q0 0.484375 0.46875 0.828125q0.609375 0.453125 4.265625 1.28125q3.65625 0.828125 5.109375 2.046875q1.421875 1.21875 1.421875 3.390625q0 2.375 -1.984375 4.09375q-1.984375 1.703125 -5.875 1.703125q-3.53125 0 -5.59375 -1.421875q-2.046875 -1.4375 -2.6875 -3.90625zm35.223022 -7.234375l-4.515625 0.8125q-0.234375 -1.34375 -1.046875 -2.03125q-0.796875 -0.6875 -2.078125 -0.6875q-1.703125 0 -2.71875 1.1875q-1.015625 1.171875 -1.015625 3.9375q0 3.078125 1.03125 4.34375q1.03125 1.265625 2.765625 1.265625q1.3125 0 2.140625 -0.734375q0.828125 -0.734375 1.171875 -2.546875l4.484375 0.765625q-0.703125 3.09375 -2.6875 4.671875q-1.984375 1.578125 -5.3125 1.578125q-3.796875 0 -6.046875 -2.390625q-2.25 -2.390625 -2.25 -6.625q0 -4.28125 2.25 -6.65625q2.265625 -2.390625 6.125 -2.390625q3.15625 0 5.015625 1.359375q1.859375 1.359375 2.6875 4.140625z" fill-rule="nonzero"/><path fill="#000000" fill-opacity="0.0" d="m301.1811 44.965878l286.72443 0l0 63.023624l-286.72443 0z" fill-rule="evenodd"/><path fill="#000000" d="m346.9482 85.96588l0 -23.859379l17.6875 0l0 4.031254l-12.875 0l0 5.296875l11.984375 0l0 4.015625l-11.984375 0l0 6.5l13.328125 0l0 4.015625l-18.140625 0zm19.99524 0l6.234375 -8.90625l-5.96875 -8.375l5.578125 0l3.0625 4.75l3.21875 -4.75l5.375 0l-5.859375 8.1875l6.390625 9.09375l-5.609375 0l-3.515625 -5.359375l-3.546875 5.359375l-5.359375 0zm20.613647 -17.28125l4.265625 0l0 2.53125q0.828125 -1.296875 2.234375 -2.109375q1.421875 -0.8125 3.140625 -0.8125q3.015625 0 5.109375 2.359375q2.109375 2.359375 2.109375 6.578125q0 4.328125 -2.125 6.734375q-2.109375 2.390625 -5.125 2.390625q-1.421875 0 -2.59375 -0.5625q-1.15625 -0.578125 -2.453125 -1.953125l0 8.703125l-4.5625 0l0 -23.859375zm4.515625 8.34375q0 2.921875 1.15625 4.3125q1.15625 1.390625 2.8125 1.390625q1.609375 0 2.65625 -1.28125q1.0625 -1.28125 1.0625 -4.1875q0 -2.71875 -1.09375 -4.03125q-1.09375 -1.328125 -2.703125 -1.328125q-1.671875 0 -2.78125 1.296875q-1.109375 1.296875 -1.109375 3.828125zm19.389404 -3.078125l-4.15625 -0.75q0.703125 -2.5 2.40625 -3.703125q1.71875 -1.203125 5.078125 -1.203125q3.0625 0 4.5625 0.734375q1.5 0.71875 2.109375 1.828125q0.609375 1.109375 0.609375 4.09375l-0.046875 5.34375q0 2.265625 0.21875 3.359375q0.21875 1.078125 0.8125 2.3125l-4.515625 0q-0.1875 -0.453125 -0.4375 -1.34375q-0.125 -0.40625 -0.171875 -0.546875q-1.171875 1.140625 -2.5 1.71875q-1.328125 0.5625 -2.84375 0.5625q-2.671875 0 -4.21875 -1.4375q-1.53125 -1.453125 -1.53125 -3.671875q0 -1.46875 0.703125 -2.609375q0.703125 -1.15625 1.953125 -1.765625q1.265625 -0.609375 3.640625 -1.0625q3.203125 -0.59375 4.4375 -1.125l0 -0.453125q0 -1.3125 -0.65625 -1.875q-0.640625 -0.5625 -2.453125 -0.5625q-1.21875 0 -1.90625 0.484375q-0.671875 0.46875 -1.09375 1.671875zm6.109375 3.71875q-0.875 0.296875 -2.78125 0.703125q-1.90625 0.40625 -2.484375 0.796875q-0.890625 0.625 -0.890625 1.609375q0 0.953125 0.703125 1.65625q0.71875 0.703125 1.828125 0.703125q1.234375 0 2.359375 -0.8125q0.828125 -0.625 1.09375 -1.515625q0.171875 -0.59375 0.171875 -2.234375l0 -0.90625zm24.722992 8.296875l-4.5625 0l0 -8.8125q0 -2.8125 -0.296875 -3.625q-0.296875 -0.828125 -0.953125 -1.28125q-0.65625 -0.453125 -1.59375 -0.453125q-1.1875 0 -2.140625 0.65625q-0.9375 0.640625 -1.28125 1.71875q-0.34375 1.078125 -0.34375 3.96875l0 7.828125l-4.5780945 0l0 -17.28125l4.2499695 0l0 2.53125q2.265625 -2.921875 5.6875 -2.921875q1.515625 0 2.765625 0.546875q1.265625 0.546875 1.90625 1.390625q0.640625 0.84375 0.890625 1.921875q0.25 1.078125 0.25 3.078125l0 10.734375zm20.49878 0l-4.25 0l0 -2.53125q-1.0625 1.46875 -2.5 2.203125q-1.4375 0.71875 -2.90625 0.71875q-2.984375 0 -5.109375 -2.390625q-2.125 -2.40625 -2.125 -6.703125q0 -4.390625 2.0625 -6.671875q2.078125 -2.296875 5.234375 -2.296875q2.890625 0 5.015625 2.40625l0 -8.593754l4.578125 0l0 23.859379zm-12.21875 -9.015625q0 2.765625 0.765625 4.0q1.109375 1.796875 3.09375 1.796875q1.578125 0 2.6875 -1.34375q1.109375 -1.34375 1.109375 -4.015625q0 -2.96875 -1.078125 -4.28125q-1.078125 -1.3125 -2.75 -1.3125q-1.625 0 -2.734375 1.296875q-1.09375 1.28125 -1.09375 3.859375zm25.992798 -14.843754l8.8125 0q2.96875 0 4.53125 0.453125q2.109375 0.625 3.59375 2.2031288q1.5 1.578125 2.28125 3.875q0.78125 2.28125 0.78125 5.625q0 2.953125 -0.734375 5.078125q-0.890625 2.609375 -2.546875 4.21875q-1.25 1.21875 -3.390625 1.90625q-1.59375 0.5 -4.265625 0.5l-9.0625 0l0 -23.859379zm4.8125 4.031254l0 15.8125l3.609375 0q2.015625 0 2.90625 -0.234375q1.171875 -0.296875 1.9375 -0.984375q0.78125 -0.703125 1.265625 -2.296875q0.484375 -1.609375 0.484375 -4.375q0 -2.765625 -0.484375 -4.25q-0.484375 -1.484375 -1.375 -2.3125q-0.875 -0.828125 -2.21875 -1.125q-1.015625 -0.234375 -3.953125 -0.234375l-2.171875 0zm19.240387 0.203125l0 -4.234379l4.578125 0l0 4.234379l-4.578125 0zm0 19.625l0 -17.28125l4.578125 0l0 17.28125l-4.578125 0zm7.650238 -4.9375l4.59375 -0.6875q0.28125 1.328125 1.171875 2.03125q0.90625 0.6875 2.515625 0.6875q1.78125 0 2.671875 -0.65625q0.59375 -0.453125 0.59375 -1.21875q0 -0.53125 -0.3125 -0.859375q-0.34375 -0.328125 -1.53125 -0.609375q-5.53125 -1.21875 -7.015625 -2.234375q-2.046875 -1.390625 -2.046875 -3.890625q0 -2.234375 1.765625 -3.765625q1.78125 -1.53125 5.5 -1.53125q3.546875 0 5.265625 1.15625q1.734375 1.15625 2.390625 3.421875l-4.3125 0.796875q-0.28125 -1.015625 -1.0625 -1.546875q-0.765625 -0.546875 -2.203125 -0.546875q-1.796875 0 -2.578125 0.515625q-0.53125 0.359375 -0.53125 0.921875q0 0.484375 0.46875 0.828125q0.609375 0.453125 4.265625 1.28125q3.65625 0.828125 5.109375 2.046875q1.421875 1.21875 1.421875 3.390625q0 2.375 -1.984375 4.09375q-1.984375 1.703125 -5.875 1.703125q-3.53125 0 -5.59375 -1.421875q-2.046875 -1.4375 -2.6875 -3.90625zm35.223022 -7.234375l-4.515625 0.8125q-0.234375 -1.34375 -1.046875 -2.03125q-0.796875 -0.6875 -2.078125 -0.6875q-1.703125 0 -2.71875 1.1875q-1.015625 1.171875 -1.015625 3.9375q0 3.078125 1.03125 4.34375q1.03125 1.265625 2.765625 1.265625q1.3125 0 2.140625 -0.734375q0.828125 -0.734375 1.171875 -2.546875l4.484375 0.765625q-0.703125 3.09375 -2.6875 4.671875q-1.984375 1.578125 -5.3125 1.578125q-3.796875 0 -6.046875 -2.390625q-2.25 -2.390625 -2.25 -6.625q0 -4.28125 2.25 -6.65625q2.265625 -2.390625 6.125 -2.390625q3.15625 0 5.015625 1.359375q1.859375 1.359375 2.6875 4.140625z" fill-rule="nonzero"/><path fill="#000000" fill-opacity="0.0" d="m622.9147 44.965878l251.7638 0l0 63.023624l-251.7638 0z" fill-rule="evenodd"/><path fill="#000000" d="m657.7503 85.96588l0 -23.859379l16.359375 0l0 4.031254l-11.53125 0l0 5.65625l9.953125 0l0 4.03125l-9.953125 0l0 10.140625l-4.828125 0zm19.233154 -8.890625q0 -2.265625 1.125 -4.390625q1.125 -2.140625 3.1875 -3.265625q2.0625 -1.125 4.59375 -1.125q3.921875 0 6.421875 2.546875q2.515625 2.546875 2.515625 6.4375q0 3.921875 -2.53125 6.5q-2.53125 2.578125 -6.375 2.578125q-2.375 0 -4.53125 -1.0625q-2.15625 -1.078125 -3.28125 -3.15625q-1.125 -2.078125 -1.125 -5.0625zm4.6875 0.25q0 2.578125 1.21875 3.9375q1.234375 1.359375 3.015625 1.359375q1.796875 0 3.0 -1.359375q1.21875 -1.359375 1.21875 -3.96875q0 -2.546875 -1.21875 -3.90625q-1.203125 -1.375 -3.0 -1.375q-1.78125 0 -3.015625 1.375q-1.21875 1.359375 -1.21875 3.9375zm16.733154 8.640625l0 -23.859379l4.578125 0l0 23.859379l-4.578125 0zm25.118958 0l-4.25 0l0 -2.53125q-1.0625 1.46875 -2.5 2.203125q-1.4375 0.71875 -2.90625 0.71875q-2.984375 0 -5.109375 -2.390625q-2.125 -2.40625 -2.125 -6.703125q0 -4.390625 2.0625 -6.671875q2.078125 -2.296875 5.234375 -2.296875q2.890625 0 5.015625 2.40625l0 -8.593754l4.578125 0l0 23.859379zm-12.21875 -9.015625q0 2.765625 0.765625 4.0q1.109375 1.796875 3.09375 1.796875q1.578125 0 2.6875 -1.34375q1.109375 -1.34375 1.109375 -4.015625q0 -2.96875 -1.078125 -4.28125q-1.078125 -1.3125 -2.75 -1.3125q-1.625 0 -2.734375 1.296875q-1.09375 1.28125 -1.09375 3.859375zm25.867798 9.015625l0 -23.859379l4.8125 0l0 23.859379l-4.8125 0zm25.087769 0l-4.5625 0l0 -8.8125q0 -2.8125 -0.296875 -3.625q-0.296875 -0.828125 -0.953125 -1.28125q-0.65625 -0.453125 -1.59375 -0.453125q-1.1875 0 -2.140625 0.65625q-0.9375 0.640625 -1.28125 1.71875q-0.34375 1.078125 -0.34375 3.96875l0 7.828125l-4.578125 0l0 -17.28125l4.25 0l0 2.53125q2.265625 -2.921875 5.6875 -2.921875q1.515625 0 2.765625 0.546875q1.265625 0.546875 1.90625 1.390625q0.640625 0.84375 0.890625 1.921875q0.25 1.078125 0.25 3.078125l0 10.734375zm7.8581543 0l-5.46875 -17.28125l4.453125 0l3.234375 11.328125l2.984375 -11.328125l4.40625 0l2.875 11.328125l3.3125 -11.328125l4.5 0l-5.546875 17.28125l-4.390625 0l-2.984375 -11.109375l-2.921875 11.109375l-4.453125 0zm26.126831 -12.015625l-4.15625 -0.75q0.703125 -2.5 2.40625 -3.703125q1.71875 -1.203125 5.078125 -1.203125q3.0625 0 4.5625 0.734375q1.5 0.71875 2.109375 1.828125q0.609375 1.109375 0.609375 4.09375l-0.046875 5.34375q0 2.265625 0.21875 3.359375q0.21875 1.078125 0.8125 2.3125l-4.515625 0q-0.1875 -0.453125 -0.4375 -1.34375q-0.125 -0.40625 -0.171875 -0.546875q-1.171875 1.140625 -2.5 1.71875q-1.328125 0.5625 -2.84375 0.5625q-2.671875 0 -4.21875 -1.4375q-1.53125 -1.453125 -1.53125 -3.671875q0 -1.46875 0.703125 -2.609375q0.703125 -1.15625 1.953125 -1.765625q1.265625 -0.609375 3.640625 -1.0625q3.203125 -0.59375 4.4375 -1.125l0 -0.453125q0 -1.3125 -0.65625 -1.875q-0.640625 -0.5625 -2.453125 -0.5625q-1.21875 0 -1.90625 0.484375q-0.671875 0.46875 -1.09375 1.671875zm6.109375 3.71875q-0.875 0.296875 -2.78125 0.703125q-1.90625 0.40625 -2.484375 0.796875q-0.890625 0.625 -0.890625 1.609375q0 0.953125 0.703125 1.65625q0.71875 0.703125 1.828125 0.703125q1.234375 0 2.359375 -0.8125q0.828125 -0.625 1.09375 -1.515625q0.171875 -0.59375 0.171875 -2.234375l0 -0.90625zm13.379272 8.296875l-4.5625 0l0 -17.28125l4.234375 0l0 2.453125q1.09375 -1.734375 1.96875 -2.28125q0.875 -0.5625 1.96875 -0.5625q1.5625 0 3.015625 0.859375l-1.40625 3.984375q-1.15625 -0.75 -2.15625 -0.75q-0.953125 0 -1.625 0.53125q-0.671875 0.53125 -1.0625 1.921875q-0.375 1.375 -0.375 5.78125l0 5.34375zm24.454346 0l-4.25 0l0 -2.53125q-1.0625 1.46875 -2.5 2.203125q-1.4375 0.71875 -2.90625 0.71875q-2.984375 0 -5.109375 -2.390625q-2.125 -2.40625 -2.125 -6.703125q0 -4.390625 2.0625 -6.671875q2.078125 -2.296875 5.234375 -2.296875q2.890625 0 5.015625 2.40625l0 -8.593754l4.578125 0l0 23.859379zm-12.21875 -9.015625q0 2.765625 0.765625 4.0q1.109375 1.796875 3.09375 1.796875q1.578125 0 2.6875 -1.34375q1.109375 -1.34375 1.109375 -4.015625q0 -2.96875 -1.078125 -4.28125q-1.078125 -1.3125 -2.75 -1.3125q-1.625 0 -2.734375 1.296875q-1.09375 1.28125 -1.09375 3.859375z" fill-rule="nonzero"/><path fill="#000000" fill-opacity="0.0" d="m712.23096 314.97433c4.3846436 3.2815552 18.405762 16.393158 26.307922 19.689392c7.9022217 3.2962036 13.301636 3.3841248 21.105286 0.08792114c7.803711 -3.2962341 21.430786 -16.554382 25.716919 -19.865234" fill-rule="evenodd"/><path stroke="#595959" stroke-width="1.0" stroke-linejoin="round" stroke-linecap="butt" d="m712.23096 314.97433c4.3846436 3.2815552 18.405762 16.393158 26.307922 19.689392c7.9022217 3.2962036 13.301636 3.3841248 21.105286 0.08792114c7.803711 -3.2962341 21.430786 -16.554382 25.716919 -19.865234" fill-rule="evenodd"/></g></svg>